<svg width="126" height="95" viewBox="0 0 126 95" fill="none" xmlns="http://www.w3.org/2000/svg">
<rect x="63.9836" y="14.0833" width="62" height="80" fill="white"/>
<rect x="0.5" y="14.5832" width="61" height="79" stroke="white"/>
<path d="M9.92614 87V21.5455H32.0426C37.1776 21.5455 41.375 22.4723 44.6349 24.326C47.9162 26.1584 50.3452 28.6406 51.9219 31.7727C53.4986 34.9048 54.2869 38.3991 54.2869 42.2557C54.2869 46.1122 53.4986 49.6172 51.9219 52.7706C50.3665 55.924 47.9588 58.4382 44.6989 60.3132C41.4389 62.1669 37.2628 63.0938 32.1705 63.0938H16.3182V56.0625H31.9148C35.4304 56.0625 38.2536 55.4553 40.3842 54.2408C42.5149 53.0263 44.0597 51.3857 45.0185 49.3189C45.9986 47.2308 46.4886 44.8764 46.4886 42.2557C46.4886 39.6349 45.9986 37.2912 45.0185 35.2244C44.0597 33.1577 42.5043 31.5384 40.3523 30.3665C38.2003 29.1733 35.3452 28.5767 31.7869 28.5767H17.8523V87H9.92614Z" fill="white"/>
<path d="M74.6108 87H66.3011L90.3352 21.5455H98.517L122.551 87H114.241L94.6818 31.9006H94.1705L74.6108 87ZM77.679 61.4318H111.173V68.4631H77.679V61.4318Z" fill="#3F72AF"/>
</svg>
